<?xml version="1.0" encoding="UTF-8" standalone="no"?>
<!DOCTYPE svg PUBLIC "-//W3C//DTD SVG 1.1//EN" "http://www.w3.org/Graphics/SVG/1.1/DTD/svg11.dtd">
<svg width="100%" height="100%" viewBox="0 0 2638 555" version="1.1" xmlns="http://www.w3.org/2000/svg" xmlns:xlink="http://www.w3.org/1999/xlink" xml:space="preserve" xmlns:serif="http://www.serif.com/" style="fill-rule:evenodd;clip-rule:evenodd;stroke-linejoin:round;stroke-miterlimit:1.41421;">
    <g transform="matrix(4.16667,0,0,4.16667,0,0)">
        <path d="M565.926,113.013C557.633,113.013 546.043,111.862 538.919,110.171C538.919,110.171 541.04,102.713 543.062,93.561C543.062,93.561 549.779,95.297 555.415,95.297C562.113,95.297 565.926,93.364 565.926,88.822C565.926,84.806 564.118,83.223 553.06,77.096C545.617,72.975 539.237,66.425 539.237,56.495C539.237,40.965 552.635,32.83 572.412,32.83C582.62,32.83 590.665,35.131 593.361,35.995C593.361,35.995 591.29,43.589 589.765,50.802C589.765,50.802 586.558,50.051 583.151,50.051C579.111,50.051 575.283,51.741 575.283,55.861C575.283,59.242 579.855,61.883 586.553,65.791C594.102,70.228 602.29,75.933 602.29,87.554C602.29,105.196 586.978,113.013 565.926,113.013ZM527.776,110.189L478.761,111.456L477.273,35.762L527.812,34.388C528.243,42.92 529.213,53.51 529.213,53.51L508.427,54.988L508.108,65.608L526.694,65.385L526.434,81.348L507.644,81.944L507.789,92.97L530.048,93.061C528.446,104.171 527.776,110.189 527.776,110.189ZM463.09,110.666L434.488,111.406L433.849,76.066C427.151,85.891 420.878,94.84 414.073,105.193L412.915,105.505L394.615,77.757L393.34,110.616C393.34,110.616 383.123,109.296 374.753,108.664L373.562,36.34C373.562,36.34 392.477,35.297 402.697,34.492C410.04,46.797 420.134,65.502 420.134,65.502C427.04,52.547 433.425,36.763 433.425,36.763C433.425,36.763 449.665,36.047 465.11,34.438C465.11,34.438 463.685,84.432 463.09,110.666ZM337.402,111.851C335.783,106.94 333.415,100.102 333.415,100.102L308.615,101.426C308.615,101.426 306.518,107.395 305.27,110.711L289.577,107.834L317.418,36.067C328.258,35.172 337.31,33.993 337.31,33.993L366.937,108.214C352.852,109.671 337.402,111.851 337.402,111.851ZM254.101,111.959C230.177,111.959 209.659,101.183 209.659,72.977C209.659,46.143 235.281,33.885 257.823,33.885C265.478,33.885 271.432,34.836 273.665,35.259C273.665,35.259 271.352,46.359 270.313,54.37C270.313,54.37 266.922,53.679 264.203,53.64C250.382,53.448 240.704,56.814 240.704,74.35C240.704,86.923 246.233,94.317 259.311,94.317C259.311,94.317 259.29,82.359 258.833,74.688C270.227,72.922 282.306,70.261 282.306,70.261C282.54,91.506 283.553,106.677 283.553,106.677C278.769,108.684 267.604,111.959 254.101,111.959ZM617.894,22.454L239.448,22.634L244.635,10.372C244.635,10.372 225.54,5.547 209.735,0.22L190.753,54.845C185.965,43.403 181.29,30.589 178.532,23.033L150.778,26.056C158.415,40.047 177.79,79.797 182.53,91.212C182.429,106.648 181.29,118.171 180.512,129.008L213.801,133L213.934,123.525L612.953,123.525C620.29,101.755 632.854,69.167 632.854,69.167L617.894,22.454ZM321.179,65.286L328.442,84.569L314.254,85.764L321.179,65.286ZM83.222,93.903C83.222,117.223 63.012,127.557 35.225,127.557C24.278,127.557 15.289,126.984 3.567,124.539C5.914,114.484 7.473,102.101 7.473,102.101C9.48,102.629 15.427,103.535 21.472,103.818C30.303,104.231 35.225,101.583 35.225,95.579C35.225,90.272 32.839,88.179 18.243,80.079C8.419,74.633 0,65.974 0,52.848C0,32.32 17.683,21.567 43.785,21.567C57.258,21.567 68.394,23.249 71.341,23.807C67.727,36.734 66.717,45.066 66.717,45.066C66.717,45.066 63.855,44.33 57.96,44.33C52.627,44.33 47.574,46.563 47.574,52.011C47.574,56.479 53.61,59.97 62.451,65.137C72.415,71.002 83.222,78.543 83.222,93.903ZM115.691,81.937L118.09,65.686L123.81,80.481L115.691,81.937ZM105.878,42.254L88.367,114.6L109.639,114.996L112.495,99.171L130.39,96.846C130.39,96.846 135.665,110.671 137.197,114.29C145.446,113.307 167.54,110.671 167.54,110.671L139.527,36.231C125.977,39.609 116.729,40.769 105.878,42.254Z" style="fill:rgb(0,191,104);fill-rule:nonzero;"/>
    </g>
</svg>
